# xmcd CD Database Entry
#
# Track frame offsets:
# 150
# 12722
# 25115
# 37280
# 51412
# 69747
# 92522
# 110497
# 129625
# 139365
# 153810
# 169400
# 184047
# 199087
# 215052
# 228145
#
# Disc length: 3277 seconds
#
# Revision: 2
# Processed by: cddbd v1.4b41PL1 Copyright (c) Steve Scherf et al.
# Submitted via: tcd 2.0b
#
DISCID=ed0ccb10
DTITLE=Various Artist - Faceplant Volume II The Campus Sampler Coll
DTITLE=ection
DYEAR=1900
DGENRE=
TTITLE0=Buildings Tumble (MxPx)
TTITLE1=The Feel Good Hit Of The Summer (Queens Of The Stone Age)
TTITLE2=#$%! You (Headstones)
TTITLE3=Dead Cell (Papa Roach)
TTITLE4=Hostess (Limblifter)
TTITLE5=Over The Edge (Fu Manchu)
TTITLE6=W.O.E. Is Me (Jurassic 5)
TTITLE7=Speechless (Fenix TX)
TTITLE8=Green (Suicide Machines)
TTITLE9=The First (Tegan And Sara)
TTITLE10=Vidiot (Cupcakes)
TTITLE11=Alsation (Mike O'Neill)
TTITLE12=Connect (DJ Hurricane w/Xzibit, Big Gipp and Pharoahe Monch)
TTITLE13=Bleeder (Nothingface)
TTITLE14=Chemicals (Blue Meanies)
TTITLE15=Lucky Day (Wild Strawberries)
EXTD=
EXTT0=
EXTT1=
EXTT2=
EXTT3=
EXTT4=
EXTT5=
EXTT6=
EXTT7=
EXTT8=
EXTT9=
EXTT10=
EXTT11=
EXTT12=
EXTT13=
EXTT14=
EXTT15=
PLAYORDER=
